<svg xmlns="http://www.w3.org/2000/svg" height="48" viewBox="0 -960 960 960" width="48"><path d="m369-59-21-133q-14-4-30.838-13.818Q300.323-215.636 289-225l-124 57L52-368l113-82.165q-1-4.761-1-14.135v-30.225q0-8.068 1-15.475L52-594l113-198 126 57q9.886-7.455 26.943-17.227Q335-762 348-766l21-136h223l20 135q15 4 31.5 14t27.5 18l126-57 112 198-115 81q1 7.556 2.5 17 1.5 9.444 1.5 16 0 6.556-1.5 15.5-1.5 8.944-2.5 15.5l115 81-114 200-124-57q-11 9-28.5 19.5T613-192L592-59H369Zm76-91h70.363l14.887-111q34.75-9 65.103-25.5 30.354-16.5 54.829-43.5L756-283l31-59-93-67q5-17.636 8-35.226 3-17.589 3-35.682Q705-498 702-516t-7-34l93-68-32-59-105.818 47Q627-658 596.427-677.295 565.853-696.59 529.598-700L516-810h-72l-13 110q-35 7-66.5 25T309-631l-103.717-46L173-618l92 66q-5 17-7.5 35t-2.5 37.545Q255-460 257.5-442t7.5 33l-92 67 32 59 104-47q25 27 56 45t66 25l14 110Zm34-203q52.757 0 89.879-37.08Q606-427.16 606-479.859q0-51.741-37.121-89.441Q531.757-607 479-607q-54 0-90.5 37.559-36.5 37.558-36.5 89.3 0 52.698 36.5 89.92Q425-353 479-353Zm2-127Z"/></svg>